# xmcd CD database file
#
# Track frame offsets:
#	150
#	6495
#	27432
#	45470
#	71502
#	100230
#	115877
#	129477
#	147135
#	164390
#
# Disc length: 2642 seconds
#
# Revision: 0
# Processed by: cddbd v1.5.1PL2 Copyright (c) Steve Scherf et al.
# Submitted via: CDex 1.51
#
DISCID=850a500a
DTITLE=ザ・カードボードボックス - さよなら今日のうららたち
DYEAR=2005
DGENRE=J-Pop
TTITLE0=東京
TTITLE1=サンサン太陽
TTITLE2=さよならメロディ
TTITLE3=春うらら
TTITLE4=てがみ
TTITLE5=スミレ通り
TTITLE6=さくら
TTITLE7=リンゴの唄
TTITLE8=虹
TTITLE9=日記
EXTD=YEAR: 2005
EXTT0=
EXTT1=
EXTT2=
EXTT3=
EXTT4=
EXTT5=
EXTT6=
EXTT7=
EXTT8=
EXTT9=
PLAYORDER=
